<?xml version="1.0" standalone="no"?>
<!DOCTYPE svg PUBLIC "-//W3C//DTD SVG 20010904//EN"
 "http://www.w3.org/TR/2001/REC-SVG-20010904/DTD/svg10.dtd">
<svg version="1.0" xmlns="http://www.w3.org/2000/svg"
 width="240.000000pt" height="240.000000pt" viewBox="0 0 240.000000 240.000000"
 preserveAspectRatio="xMidYMid meet">
<metadata>
Created by potrace 1.11, written by Peter Selinger 2001-2013
</metadata>
<g transform="translate(0.000000,240.000000) scale(0.100000,-0.100000)"
fill="#000000" stroke="none">
<path d="M985 2351 c-105 -21 -232 -58 -260 -78 -11 -7 -27 -13 -37 -13 -10 0
-18 -4 -18 -9 0 -5 -15 -15 -32 -22 -18 -7 -37 -17 -43 -21 -40 -33 -105 -78
-111 -78 -4 0 -17 -12 -30 -26 -13 -14 -29 -22 -34 -19 -6 4 -10 3 -8 -2 3
-11 -78 -93 -92 -93 -6 0 -8 -5 -4 -11 3 -6 -3 -21 -15 -33 -54 -54 -137 -196
-180 -306 -18 -47 -39 -101 -47 -120 -14 -35 -17 -51 -31 -195 -15 -157 -5
-277 33 -419 14 -50 27 -102 31 -116 3 -14 12 -32 20 -41 7 -9 13 -20 11 -25
-2 -5 7 -25 19 -44 12 -20 25 -51 28 -70 7 -39 15 -52 15 -25 0 11 19 -9 45
-48 25 -37 45 -72 45 -77 0 -5 9 -11 19 -15 11 -3 24 -19 30 -35 5 -17 16 -30
23 -30 7 0 31 -17 52 -38 22 -20 49 -44 61 -52 12 -8 46 -33 75 -54 56 -42
195 -116 219 -116 7 0 28 -9 45 -19 17 -10 49 -22 71 -25 22 -3 76 -12 120
-20 79 -15 314 -15 395 -1 90 16 294 80 320 100 8 6 30 18 49 25 18 7 44 24
57 37 13 13 29 23 37 23 14 0 24 8 122 97 26 24 51 43 56 43 4 0 16 14 24 30
9 17 20 28 25 25 6 -4 10 0 10 8 0 8 11 26 25 41 13 14 36 47 51 71 14 25 31
42 36 38 6 -3 8 -1 5 4 -9 14 77 196 87 186 4 -4 5 -1 1 7 -3 8 4 40 16 70 11
30 22 73 25 95 3 22 7 47 10 55 10 28 12 245 3 330 -11 101 -43 239 -68 295
-10 22 -22 55 -26 73 -3 17 -10 32 -15 32 -5 0 -23 26 -42 58 -18 31 -37 64
-43 73 -15 25 -59 80 -105 128 -22 25 -40 48 -40 52 0 5 -12 15 -27 23 -24 12
-96 68 -155 121 -10 8 -18 13 -18 10 0 -11 -81 37 -87 50 -3 8 -9 13 -13 10
-4 -3 -48 10 -97 29 -139 54 -252 74 -411 74 -91 0 -167 -5 -227 -17z"/>
</g>
</svg>
